# xmcd
#
# Track frame offsets:
#	150
#	1492
#	13750
#	26698
#	38057
#	51121
#	63096
#	75495
#	87851
#	100206
#	112301
#
# Disc length: 1743 seconds
#
# Revision: 1
# Processed by: cddbd v1.5.2PL0 Copyright (c) Steve Scherf et al.
# Submitted via: audiograbber 1.83.01
#
DISCID=8006cd0b
DTITLE=Buster Shuffle - Our Night Out
DYEAR=2009
DGENRE=Ska
TTITLE0=Intro
TTITLE1=Our Night Out
TTITLE2=Me, Myself and I
TTITLE3=At the Bank
TTITLE4=I'll get my Coat
TTITLE5=I'm into You
TTITLE6=America
TTITLE7=Maneater
TTITLE8=Arthur McArthur
TTITLE9=Thirty-Eight
TTITLE10=You're Alright
EXTD=
EXTT0=
EXTT1=
EXTT2=
EXTT3=
EXTT4=
EXTT5=
EXTT6=
EXTT7=
EXTT8=
EXTT9=
EXTT10=
PLAYORDER=
